<?xml version="1.0" encoding="utf-8" standalone="no"?>
<!DOCTYPE svg PUBLIC "-//W3C//DTD SVG 1.1//EN"
  "http://www.w3.org/Graphics/SVG/1.1/DTD/svg11.dtd">
<!-- Created with matplotlib (https://matplotlib.org/) -->
<svg height="345.6pt" version="1.1" viewBox="0 0 460.8 345.6" width="460.8pt" xmlns="http://www.w3.org/2000/svg" xmlns:xlink="http://www.w3.org/1999/xlink">
 <metadata>
  <rdf:RDF xmlns:cc="http://creativecommons.org/ns#" xmlns:dc="http://purl.org/dc/elements/1.1/" xmlns:rdf="http://www.w3.org/1999/02/22-rdf-syntax-ns#">
   <cc:Work>
    <dc:type rdf:resource="http://purl.org/dc/dcmitype/StillImage"/>
    <dc:date>2021-09-07T15:34:10.758941</dc:date>
    <dc:format>image/svg+xml</dc:format>
    <dc:creator>
     <cc:Agent>
      <dc:title>Matplotlib v3.3.4, https://matplotlib.org/</dc:title>
     </cc:Agent>
    </dc:creator>
   </cc:Work>
  </rdf:RDF>
 </metadata>
 <defs>
  <style type="text/css">*{stroke-linecap:butt;stroke-linejoin:round;}</style>
 </defs>
 <g id="figure_1">
  <g id="patch_1">
   <path d="M 0 345.6 
L 460.8 345.6 
L 460.8 0 
L 0 0 
z
" style="fill:#ffffff;"/>
  </g>
  <g id="axes_1">
   <g id="LineCollection_1">
    <path clip-path="url(#p89ed786c65)" d="M 277.40736 139.147272 
L 276.276709 138.60288 
L 276.0768 138.505355 
L 274.74624 137.613267 
L 274.347577 137.27232 
L 273.41568 136.340423 
L 273.074733 135.94176 
L 272.182645 134.6112 
L 272.08512 134.411291 
L 271.540728 133.28064 
L 271.127776 131.95008 
L 270.91144 130.61952 
L 270.86656 129.28896 
L 270.988188 127.9584 
L 271.291206 126.62784 
L 271.805442 125.29728 
L 272.08512 124.771064 
L 272.548305 123.96672 
L 273.41568 122.836979 
L 273.598757 122.63616 
L 274.74624 121.566187 
L 275.113462 121.3056 
L 276.0768 120.662764 
L 277.40736 120.046359 
L 277.641893 119.97504 
L 278.73792 119.6216 
L 280.06848 119.392239 
L 281.39904 119.344659 
L 282.7296 119.473881 
L 284.06016 119.791676 
L 284.544772 119.97504 
L 285.39072 120.295206 
L 286.72128 121.039781 
L 287.089393 121.3056 
L 288.05184 122.086814 
L 288.601186 122.63616 
L 289.3824 123.598607 
L 289.648219 123.96672 
L 290.392794 125.29728 
L 290.71296 126.143228 
L 290.896324 126.62784 
L 291.214119 127.9584 
L 291.343341 129.28896 
L 291.295761 130.61952 
L 291.0664 131.95008 
L 290.71296 133.046107 
L 290.641641 133.28064 
L 290.025236 134.6112 
L 289.3824 135.574538 
L 289.121813 135.94176 
L 288.05184 137.089243 
L 287.851021 137.27232 
L 286.72128 138.139695 
L 285.916936 138.60288 
L 285.39072 138.882558 
L 284.06016 139.396794 
L 282.7296 139.699812 
L 281.39904 139.82144 
L 280.06848 139.77656 
L 278.73792 139.560224 
L 277.40736 139.147272 
" style="fill:none;stroke:#3c3c3c;stroke-dasharray:5.55,2.4;stroke-dashoffset:0;stroke-width:1.5;"/>
   </g>
   <g id="LineCollection_2">
    <path clip-path="url(#p89ed786c65)" d="M 278.73792 160.006747 
L 276.0768 159.23094 
L 273.41568 158.235138 
L 270.75456 157.00762 
L 268.09344 155.524318 
L 265.43232 153.745377 
L 262.7712 151.616898 
L 260.11008 149.057968 
L 257.958795 146.58624 
L 256.015781 143.92512 
L 254.386993 141.264 
L 253.035033 138.60288 
L 251.929608 135.94176 
L 251.043573 133.28064 
L 250.363379 130.61952 
L 249.880671 127.9584 
L 249.589641 125.29728 
L 249.481098 122.63616 
L 249.552188 119.97504 
L 249.805578 117.31392 
L 250.248178 114.6528 
L 250.88794 111.99168 
L 251.727507 109.33056 
L 252.787282 106.66944 
L 254.08624 104.00832 
L 255.652346 101.3472 
L 257.525105 98.68608 
L 259.768529 96.02496 
L 261.44064 94.313295 
L 264.10176 91.987299 
L 266.76288 90.038164 
L 269.424 88.413285 
L 272.08512 87.0621 
L 274.74624 85.953499 
L 277.40736 85.070047 
L 280.06848 84.391179 
L 282.7296 83.910845 
L 285.39072 83.613431 
L 288.05184 83.502691 
L 290.71296 83.575312 
L 293.37408 83.833157 
L 296.0352 84.276061 
L 298.69632 84.911476 
L 301.35744 85.753013 
L 304.01856 86.814491 
L 306.67968 88.11284 
L 309.3408 89.676887 
L 312.00192 91.550034 
L 314.189253 93.36384 
L 315.9936 95.079412 
L 318.067852 97.35552 
L 320.115376 100.01664 
L 321.830166 102.67776 
L 323.25821 105.33888 
L 324.433966 108 
L 325.379198 110.66112 
L 326.120054 113.32224 
L 326.654579 115.98336 
L 327.007224 118.64448 
L 327.17192 121.3056 
L 327.152939 123.96672 
L 326.949619 126.62784 
L 326.558827 129.28896 
L 325.984051 131.95008 
L 325.199562 134.6112 
L 323.97696 137.793117 
L 322.98217 139.93344 
L 321.31584 142.877214 
L 319.718901 145.25568 
L 317.32416 148.213265 
L 315.03475 150.57792 
L 313.33248 152.092409 
L 310.67136 154.140253 
L 308.01024 155.854392 
L 305.452981 157.23072 
L 304.01856 157.900718 
L 301.35744 158.960493 
L 298.346058 159.89184 
L 296.0352 160.439822 
L 293.37408 160.882422 
L 290.71296 161.135812 
L 288.05184 161.206902 
L 285.39072 161.098359 
L 282.7296 160.807329 
L 280.06848 160.324621 
L 278.73792 160.006747 
L 278.73792 160.006747 
" style="fill:none;stroke:#3c3c3c;stroke-dasharray:5.55,2.4;stroke-dashoffset:0;stroke-width:1.5;"/>
   </g>
   <g id="LineCollection_3">
    <path clip-path="url(#p89ed786c65)" d="M 294.70464 171.904444 
L 290.71296 171.650713 
L 286.72128 171.116322 
L 282.7296 170.289061 
L 278.73792 169.159037 
L 275.170663 167.8752 
L 273.41568 167.155704 
L 269.39463 165.21408 
L 266.76288 163.731062 
L 264.10176 162.036919 
L 261.144026 159.89184 
L 258.77952 157.965016 
L 256.1184 155.522225 
L 253.45728 152.741605 
L 251.610875 150.57792 
L 249.4656 147.752462 
L 247.777918 145.25568 
L 246.180804 142.59456 
L 244.135584 138.60288 
L 242.8128 135.517337 
L 241.971012 133.28064 
L 240.738527 129.28896 
L 239.815294 125.29728 
L 239.183446 121.3056 
L 238.838134 117.31392 
L 238.76696 113.32224 
L 238.972357 109.33056 
L 239.457075 105.33888 
L 240.232466 101.3472 
L 241.304799 97.35552 
L 242.194399 94.6944 
L 243.809925 90.70272 
L 245.47392 87.298018 
L 247.335312 84.04992 
L 249.4656 80.836111 
L 251.046148 78.72768 
L 253.45728 75.848253 
L 256.1184 73.068086 
L 258.77952 70.628185 
L 261.961337 68.0832 
L 264.10176 66.557119 
L 266.76288 64.859304 
L 270.75456 62.679404 
L 273.443482 61.4304 
L 276.802583 60.09984 
L 280.06848 59.021452 
L 284.06016 57.994809 
L 288.05184 57.269017 
L 292.04352 56.824519 
L 296.0352 56.661604 
L 300.02688 56.775353 
L 304.01856 57.168936 
L 308.01024 57.844825 
L 312.00192 58.818234 
L 315.9936 60.100242 
L 319.334885 61.4304 
L 322.6464 62.990764 
L 325.30752 64.44192 
L 328.963863 66.75264 
L 330.826338 68.0832 
L 334.135858 70.74432 
L 335.952 72.386397 
L 338.61312 75.06908 
L 341.27424 78.14484 
L 342.751613 80.05824 
L 344.60461 82.71936 
L 346.59648 85.998981 
L 348.357401 89.37216 
L 350.090275 93.36384 
L 351.480156 97.35552 
L 352.553272 101.3472 
L 353.324077 105.33888 
L 353.812918 109.33056 
L 354.019219 113.32224 
L 353.948653 117.31392 
L 353.599102 121.3056 
L 352.966935 125.29728 
L 352.040933 129.28896 
L 350.809686 133.28064 
L 349.246039 137.27232 
L 347.92704 140.091343 
L 346.59648 142.597215 
L 345.004962 145.25568 
L 342.6048 148.726663 
L 341.171369 150.57792 
L 338.61312 153.521417 
L 335.952 156.204085 
L 333.29088 158.567306 
L 329.851889 161.2224 
L 326.63808 163.352688 
L 323.389982 165.21408 
L 319.98528 166.878075 
L 315.9936 168.493601 
L 312.00192 169.775838 
L 308.01024 170.74656 
L 304.01856 171.424283 
L 300.02688 171.81444 
L 296.0352 171.928274 
L 294.70464 171.904444 
L 294.70464 171.904444 
" style="fill:none;stroke:#3c3c3c;stroke-dasharray:5.55,2.4;stroke-dashoffset:0;stroke-width:1.5;"/>
   </g>
   <g id="LineCollection_4">
    <path clip-path="url(#p89ed786c65)" d="M 369.216 307.584 
L 103.104 41.472 
L 103.104 41.472 
" style="fill:none;stroke:#3c3c3c;stroke-width:1.5;"/>
   </g>
   <g id="LineCollection_5">
    <path clip-path="url(#p89ed786c65)" d="M 166.97088 291.692077 
L 170.96256 292.180918 
L 174.95424 292.387219 
L 178.94592 292.316653 
L 182.9376 291.967102 
L 186.92928 291.334935 
L 190.92096 290.408933 
L 194.91264 289.177686 
L 198.90432 287.614039 
L 201.723343 286.29504 
L 204.229215 284.96448 
L 206.88768 283.372962 
L 210.358663 280.9728 
L 212.20992 279.539369 
L 215.153417 276.98112 
L 217.836085 274.32 
L 220.199306 271.65888 
L 222.8544 268.219889 
L 224.984688 265.00608 
L 226.84608 261.757982 
L 228.510075 258.35328 
L 230.125601 254.3616 
L 231.407838 250.36992 
L 232.37856 246.37824 
L 233.056283 242.38656 
L 233.44644 238.39488 
L 233.560274 234.4032 
L 233.397681 230.41152 
L 232.958656 226.41984 
L 232.226815 222.42816 
L 231.20485 218.43648 
L 229.865572 214.4448 
L 228.17664 210.437126 
L 226.84608 207.76263 
L 225.363062 205.13088 
L 223.668919 202.46976 
L 221.52384 199.512026 
L 219.597016 197.14752 
L 217.154225 194.4864 
L 214.373605 191.82528 
L 212.20992 189.978875 
L 209.384462 187.8336 
L 206.88768 186.145918 
L 204.22656 184.548804 
L 200.23488 182.503584 
L 197.149337 181.1808 
L 194.91264 180.339012 
L 190.92096 179.106527 
L 186.92928 178.183294 
L 182.9376 177.551446 
L 178.94592 177.206134 
L 174.95424 177.13496 
L 170.96256 177.340357 
L 166.97088 177.825075 
L 162.9792 178.600466 
L 158.98752 179.672799 
L 156.3264 180.562399 
L 152.33472 182.177925 
L 148.930018 183.84192 
L 145.68192 185.703312 
L 142.468111 187.8336 
L 140.35968 189.414148 
L 137.480253 191.82528 
L 134.700086 194.4864 
L 132.260185 197.14752 
L 129.7152 200.329337 
L 128.189119 202.46976 
L 126.491304 205.13088 
L 124.311404 209.12256 
L 123.0624 211.811482 
L 121.73184 215.170583 
L 120.653452 218.43648 
L 119.626809 222.42816 
L 118.901017 226.41984 
L 118.456519 230.41152 
L 118.293604 234.4032 
L 118.407353 238.39488 
L 118.800936 242.38656 
L 119.476825 246.37824 
L 120.450234 250.36992 
L 121.732242 254.3616 
L 123.0624 257.702885 
L 124.622764 261.0144 
L 126.07392 263.67552 
L 128.38464 267.331863 
L 129.7152 269.194338 
L 132.37632 272.503858 
L 134.018397 274.32 
L 136.70108 276.98112 
L 139.77684 279.64224 
L 141.69024 281.119613 
L 144.35136 282.97261 
L 147.630981 284.96448 
L 151.00416 286.725401 
L 154.99584 288.458275 
L 158.98752 289.848156 
L 162.9792 290.921272 
L 166.97088 291.692077 
L 166.97088 291.692077 
" style="fill:none;stroke:#3c3c3c;stroke-width:1.5;"/>
   </g>
   <g id="LineCollection_6">
    <path clip-path="url(#p89ed786c65)" d="M 177.61536 265.022579 
L 180.27648 265.375224 
L 182.9376 265.53992 
L 185.59872 265.520939 
L 188.25984 265.317619 
L 190.92096 264.926827 
L 193.58208 264.352051 
L 196.2432 263.567562 
L 199.425117 262.34496 
L 201.56544 261.35017 
L 204.509214 259.68384 
L 206.88768 258.086901 
L 209.845265 255.69216 
L 212.20992 253.40275 
L 213.724409 251.70048 
L 215.772253 249.03936 
L 217.486392 246.37824 
L 218.86272 243.820981 
L 219.532718 242.38656 
L 220.592493 239.72544 
L 221.52384 236.714058 
L 222.071822 234.4032 
L 222.514422 231.74208 
L 222.767812 229.08096 
L 222.838902 226.41984 
L 222.730359 223.75872 
L 222.439329 221.0976 
L 221.956621 218.43648 
L 221.276427 215.77536 
L 220.19328 212.620136 
L 219.284967 210.45312 
L 217.53216 207.105192 
L 216.2016 204.981789 
L 214.361205 202.46976 
L 212.030103 199.80864 
L 209.5488 197.439102 
L 207.558147 195.81696 
L 205.55712 194.383781 
L 202.896 192.754993 
L 200.23488 191.403033 
L 197.57376 190.297608 
L 194.91264 189.411573 
L 192.25152 188.731379 
L 189.5904 188.248671 
L 186.92928 187.957641 
L 184.26816 187.849098 
L 181.60704 187.920188 
L 178.94592 188.173578 
L 176.2848 188.616178 
L 173.62368 189.25594 
L 170.96256 190.095507 
L 168.30144 191.155282 
L 165.64032 192.45424 
L 162.9792 194.020346 
L 160.31808 195.893105 
L 157.65696 198.136529 
L 155.945295 199.80864 
L 153.619299 202.46976 
L 151.670164 205.13088 
L 150.045285 207.792 
L 148.6941 210.45312 
L 147.585499 213.11424 
L 146.702047 215.77536 
L 146.023179 218.43648 
L 145.542845 221.0976 
L 145.245431 223.75872 
L 145.134691 226.41984 
L 145.207312 229.08096 
L 145.465157 231.74208 
L 145.908061 234.4032 
L 146.543476 237.06432 
L 147.385013 239.72544 
L 148.446491 242.38656 
L 149.74484 245.04768 
L 151.308887 247.7088 
L 153.182034 250.36992 
L 154.99584 252.557253 
L 156.711412 254.3616 
L 158.98752 256.435852 
L 161.64864 258.483376 
L 164.30976 260.198166 
L 166.97088 261.62621 
L 169.632 262.801966 
L 172.29312 263.747198 
L 174.95424 264.488054 
L 177.61536 265.022579 
L 177.61536 265.022579 
" style="fill:none;stroke:#3c3c3c;stroke-width:1.5;"/>
   </g>
   <g id="LineCollection_7">
    <path clip-path="url(#p89ed786c65)" d="M 188.25984 229.264324 
L 189.5904 229.582119 
L 190.92096 229.711341 
L 192.25152 229.663761 
L 193.58208 229.4344 
L 194.678107 229.08096 
L 194.91264 229.009641 
L 196.2432 228.393236 
L 197.206538 227.7504 
L 197.57376 227.489813 
L 198.721243 226.41984 
L 198.90432 226.219021 
L 199.771695 225.08928 
L 200.23488 224.284936 
L 200.514558 223.75872 
L 201.028794 222.42816 
L 201.331812 221.0976 
L 201.45344 219.76704 
L 201.40856 218.43648 
L 201.192224 217.10592 
L 200.779272 215.77536 
L 200.23488 214.644709 
L 200.137355 214.4448 
L 199.245267 213.11424 
L 198.90432 212.715577 
L 197.972423 211.78368 
L 197.57376 211.442733 
L 196.2432 210.550645 
L 196.043291 210.45312 
L 194.91264 209.908728 
L 193.58208 209.495776 
L 192.25152 209.27944 
L 190.92096 209.23456 
L 189.5904 209.356188 
L 188.25984 209.659206 
L 186.92928 210.173442 
L 186.403064 210.45312 
L 185.59872 210.916305 
L 184.468979 211.78368 
L 184.26816 211.966757 
L 183.198187 213.11424 
L 182.9376 213.481462 
L 182.294764 214.4448 
L 181.678359 215.77536 
L 181.60704 216.009893 
L 181.2536 217.10592 
L 181.024239 218.43648 
L 180.976659 219.76704 
L 181.105881 221.0976 
L 181.423676 222.42816 
L 181.60704 222.912772 
L 181.927206 223.75872 
L 182.671781 225.08928 
L 182.9376 225.457393 
L 183.718814 226.41984 
L 184.26816 226.969186 
L 185.230607 227.7504 
L 185.59872 228.016219 
L 186.92928 228.760794 
L 187.775228 229.08096 
L 188.25984 229.264324 
" style="fill:none;stroke:#3c3c3c;stroke-width:1.5;"/>
   </g>
   <g id="text_1">
    <!-- Negative charge -->
    <g transform="translate(280.512 41.472)scale(0.1 -0.1)">
     <defs>
      <path d="M 9.8125 72.90625 
L 23.09375 72.90625 
L 55.421875 11.921875 
L 55.421875 72.90625 
L 64.984375 72.90625 
L 64.984375 0 
L 51.703125 0 
L 19.390625 60.984375 
L 19.390625 0 
L 9.8125 0 
z
" id="DejaVuSans-78"/>
      <path d="M 56.203125 29.59375 
L 56.203125 25.203125 
L 14.890625 25.203125 
Q 15.484375 15.921875 20.484375 11.0625 
Q 25.484375 6.203125 34.421875 6.203125 
Q 39.59375 6.203125 44.453125 7.46875 
Q 49.3125 8.734375 54.109375 11.28125 
L 54.109375 2.78125 
Q 49.265625 0.734375 44.1875 -0.34375 
Q 39.109375 -1.421875 33.890625 -1.421875 
Q 20.796875 -1.421875 13.15625 6.1875 
Q 5.515625 13.8125 5.515625 26.8125 
Q 5.515625 40.234375 12.765625 48.109375 
Q 20.015625 56 32.328125 56 
Q 43.359375 56 49.78125 48.890625 
Q 56.203125 41.796875 56.203125 29.59375 
z
M 47.21875 32.234375 
Q 47.125 39.59375 43.09375 43.984375 
Q 39.0625 48.390625 32.421875 48.390625 
Q 24.90625 48.390625 20.390625 44.140625 
Q 15.875 39.890625 15.1875 32.171875 
z
" id="DejaVuSans-101"/>
      <path d="M 45.40625 27.984375 
Q 45.40625 37.75 41.375 43.109375 
Q 37.359375 48.484375 30.078125 48.484375 
Q 22.859375 48.484375 18.828125 43.109375 
Q 14.796875 37.75 14.796875 27.984375 
Q 14.796875 18.265625 18.828125 12.890625 
Q 22.859375 7.515625 30.078125 7.515625 
Q 37.359375 7.515625 41.375 12.890625 
Q 45.40625 18.265625 45.40625 27.984375 
z
M 54.390625 6.78125 
Q 54.390625 -7.171875 48.1875 -13.984375 
Q 42 -20.796875 29.203125 -20.796875 
Q 24.46875 -20.796875 20.265625 -20.09375 
Q 16.0625 -19.390625 12.109375 -17.921875 
L 12.109375 -9.1875 
Q 16.0625 -11.328125 19.921875 -12.34375 
Q 23.78125 -13.375 27.78125 -13.375 
Q 36.625 -13.375 41.015625 -8.765625 
Q 45.40625 -4.15625 45.40625 5.171875 
L 45.40625 9.625 
Q 42.625 4.78125 38.28125 2.390625 
Q 33.9375 0 27.875 0 
Q 17.828125 0 11.671875 7.65625 
Q 5.515625 15.328125 5.515625 27.984375 
Q 5.515625 40.671875 11.671875 48.328125 
Q 17.828125 56 27.875 56 
Q 33.9375 56 38.28125 53.609375 
Q 42.625 51.21875 45.40625 46.390625 
L 45.40625 54.6875 
L 54.390625 54.6875 
z
" id="DejaVuSans-103"/>
      <path d="M 34.28125 27.484375 
Q 23.390625 27.484375 19.1875 25 
Q 14.984375 22.515625 14.984375 16.5 
Q 14.984375 11.71875 18.140625 8.90625 
Q 21.296875 6.109375 26.703125 6.109375 
Q 34.1875 6.109375 38.703125 11.40625 
Q 43.21875 16.703125 43.21875 25.484375 
L 43.21875 27.484375 
z
M 52.203125 31.203125 
L 52.203125 0 
L 43.21875 0 
L 43.21875 8.296875 
Q 40.140625 3.328125 35.546875 0.953125 
Q 30.953125 -1.421875 24.3125 -1.421875 
Q 15.921875 -1.421875 10.953125 3.296875 
Q 6 8.015625 6 15.921875 
Q 6 25.140625 12.171875 29.828125 
Q 18.359375 34.515625 30.609375 34.515625 
L 43.21875 34.515625 
L 43.21875 35.40625 
Q 43.21875 41.609375 39.140625 45 
Q 35.0625 48.390625 27.6875 48.390625 
Q 23 48.390625 18.546875 47.265625 
Q 14.109375 46.140625 10.015625 43.890625 
L 10.015625 52.203125 
Q 14.9375 54.109375 19.578125 55.046875 
Q 24.21875 56 28.609375 56 
Q 40.484375 56 46.34375 49.84375 
Q 52.203125 43.703125 52.203125 31.203125 
z
" id="DejaVuSans-97"/>
      <path d="M 18.3125 70.21875 
L 18.3125 54.6875 
L 36.8125 54.6875 
L 36.8125 47.703125 
L 18.3125 47.703125 
L 18.3125 18.015625 
Q 18.3125 11.328125 20.140625 9.421875 
Q 21.96875 7.515625 27.59375 7.515625 
L 36.8125 7.515625 
L 36.8125 0 
L 27.59375 0 
Q 17.1875 0 13.234375 3.875 
Q 9.28125 7.765625 9.28125 18.015625 
L 9.28125 47.703125 
L 2.6875 47.703125 
L 2.6875 54.6875 
L 9.28125 54.6875 
L 9.28125 70.21875 
z
" id="DejaVuSans-116"/>
      <path d="M 9.421875 54.6875 
L 18.40625 54.6875 
L 18.40625 0 
L 9.421875 0 
z
M 9.421875 75.984375 
L 18.40625 75.984375 
L 18.40625 64.59375 
L 9.421875 64.59375 
z
" id="DejaVuSans-105"/>
      <path d="M 2.984375 54.6875 
L 12.5 54.6875 
L 29.59375 8.796875 
L 46.6875 54.6875 
L 56.203125 54.6875 
L 35.6875 0 
L 23.484375 0 
z
" id="DejaVuSans-118"/>
      <path id="DejaVuSans-32"/>
      <path d="M 48.78125 52.59375 
L 48.78125 44.1875 
Q 44.96875 46.296875 41.140625 47.34375 
Q 37.3125 48.390625 33.40625 48.390625 
Q 24.65625 48.390625 19.8125 42.84375 
Q 14.984375 37.3125 14.984375 27.296875 
Q 14.984375 17.28125 19.8125 11.734375 
Q 24.65625 6.203125 33.40625 6.203125 
Q 37.3125 6.203125 41.140625 7.25 
Q 44.96875 8.296875 48.78125 10.40625 
L 48.78125 2.09375 
Q 45.015625 0.34375 40.984375 -0.53125 
Q 36.96875 -1.421875 32.421875 -1.421875 
Q 20.0625 -1.421875 12.78125 6.34375 
Q 5.515625 14.109375 5.515625 27.296875 
Q 5.515625 40.671875 12.859375 48.328125 
Q 20.21875 56 33.015625 56 
Q 37.15625 56 41.109375 55.140625 
Q 45.0625 54.296875 48.78125 52.59375 
z
" id="DejaVuSans-99"/>
      <path d="M 54.890625 33.015625 
L 54.890625 0 
L 45.90625 0 
L 45.90625 32.71875 
Q 45.90625 40.484375 42.875 44.328125 
Q 39.84375 48.1875 33.796875 48.1875 
Q 26.515625 48.1875 22.3125 43.546875 
Q 18.109375 38.921875 18.109375 30.90625 
L 18.109375 0 
L 9.078125 0 
L 9.078125 75.984375 
L 18.109375 75.984375 
L 18.109375 46.1875 
Q 21.34375 51.125 25.703125 53.5625 
Q 30.078125 56 35.796875 56 
Q 45.21875 56 50.046875 50.171875 
Q 54.890625 44.34375 54.890625 33.015625 
z
" id="DejaVuSans-104"/>
      <path d="M 41.109375 46.296875 
Q 39.59375 47.171875 37.8125 47.578125 
Q 36.03125 48 33.890625 48 
Q 26.265625 48 22.1875 43.046875 
Q 18.109375 38.09375 18.109375 28.8125 
L 18.109375 0 
L 9.078125 0 
L 9.078125 54.6875 
L 18.109375 54.6875 
L 18.109375 46.1875 
Q 20.953125 51.171875 25.484375 53.578125 
Q 30.03125 56 36.53125 56 
Q 37.453125 56 38.578125 55.875 
Q 39.703125 55.765625 41.0625 55.515625 
z
" id="DejaVuSans-114"/>
     </defs>
     <use xlink:href="#DejaVuSans-78"/>
     <use x="74.804688" xlink:href="#DejaVuSans-101"/>
     <use x="136.328125" xlink:href="#DejaVuSans-103"/>
     <use x="199.804688" xlink:href="#DejaVuSans-97"/>
     <use x="261.083984" xlink:href="#DejaVuSans-116"/>
     <use x="300.292969" xlink:href="#DejaVuSans-105"/>
     <use x="328.076172" xlink:href="#DejaVuSans-118"/>
     <use x="387.255859" xlink:href="#DejaVuSans-101"/>
     <use x="448.779297" xlink:href="#DejaVuSans-32"/>
     <use x="480.566406" xlink:href="#DejaVuSans-99"/>
     <use x="535.546875" xlink:href="#DejaVuSans-104"/>
     <use x="598.925781" xlink:href="#DejaVuSans-97"/>
     <use x="660.205078" xlink:href="#DejaVuSans-114"/>
     <use x="699.568359" xlink:href="#DejaVuSans-103"/>
     <use x="763.044922" xlink:href="#DejaVuSans-101"/>
    </g>
   </g>
   <g id="text_2">
    <!-- Positive charge -->
    <g transform="translate(191.808 307.584)scale(0.1 -0.1)">
     <defs>
      <path d="M 19.671875 64.796875 
L 19.671875 37.40625 
L 32.078125 37.40625 
Q 38.96875 37.40625 42.71875 40.96875 
Q 46.484375 44.53125 46.484375 51.125 
Q 46.484375 57.671875 42.71875 61.234375 
Q 38.96875 64.796875 32.078125 64.796875 
z
M 9.8125 72.90625 
L 32.078125 72.90625 
Q 44.34375 72.90625 50.609375 67.359375 
Q 56.890625 61.8125 56.890625 51.125 
Q 56.890625 40.328125 50.609375 34.8125 
Q 44.34375 29.296875 32.078125 29.296875 
L 19.671875 29.296875 
L 19.671875 0 
L 9.8125 0 
z
" id="DejaVuSans-80"/>
      <path d="M 30.609375 48.390625 
Q 23.390625 48.390625 19.1875 42.75 
Q 14.984375 37.109375 14.984375 27.296875 
Q 14.984375 17.484375 19.15625 11.84375 
Q 23.34375 6.203125 30.609375 6.203125 
Q 37.796875 6.203125 41.984375 11.859375 
Q 46.1875 17.53125 46.1875 27.296875 
Q 46.1875 37.015625 41.984375 42.703125 
Q 37.796875 48.390625 30.609375 48.390625 
z
M 30.609375 56 
Q 42.328125 56 49.015625 48.375 
Q 55.71875 40.765625 55.71875 27.296875 
Q 55.71875 13.875 49.015625 6.21875 
Q 42.328125 -1.421875 30.609375 -1.421875 
Q 18.84375 -1.421875 12.171875 6.21875 
Q 5.515625 13.875 5.515625 27.296875 
Q 5.515625 40.765625 12.171875 48.375 
Q 18.84375 56 30.609375 56 
z
" id="DejaVuSans-111"/>
      <path d="M 44.28125 53.078125 
L 44.28125 44.578125 
Q 40.484375 46.53125 36.375 47.5 
Q 32.28125 48.484375 27.875 48.484375 
Q 21.1875 48.484375 17.84375 46.4375 
Q 14.5 44.390625 14.5 40.28125 
Q 14.5 37.15625 16.890625 35.375 
Q 19.28125 33.59375 26.515625 31.984375 
L 29.59375 31.296875 
Q 39.15625 29.25 43.1875 25.515625 
Q 47.21875 21.78125 47.21875 15.09375 
Q 47.21875 7.46875 41.1875 3.015625 
Q 35.15625 -1.421875 24.609375 -1.421875 
Q 20.21875 -1.421875 15.453125 -0.5625 
Q 10.6875 0.296875 5.421875 2 
L 5.421875 11.28125 
Q 10.40625 8.6875 15.234375 7.390625 
Q 20.0625 6.109375 24.8125 6.109375 
Q 31.15625 6.109375 34.5625 8.28125 
Q 37.984375 10.453125 37.984375 14.40625 
Q 37.984375 18.0625 35.515625 20.015625 
Q 33.0625 21.96875 24.703125 23.78125 
L 21.578125 24.515625 
Q 13.234375 26.265625 9.515625 29.90625 
Q 5.8125 33.546875 5.8125 39.890625 
Q 5.8125 47.609375 11.28125 51.796875 
Q 16.75 56 26.8125 56 
Q 31.78125 56 36.171875 55.265625 
Q 40.578125 54.546875 44.28125 53.078125 
z
" id="DejaVuSans-115"/>
     </defs>
     <use xlink:href="#DejaVuSans-80"/>
     <use x="56.677734" xlink:href="#DejaVuSans-111"/>
     <use x="117.859375" xlink:href="#DejaVuSans-115"/>
     <use x="169.958984" xlink:href="#DejaVuSans-105"/>
     <use x="197.742188" xlink:href="#DejaVuSans-116"/>
     <use x="236.951172" xlink:href="#DejaVuSans-105"/>
     <use x="264.734375" xlink:href="#DejaVuSans-118"/>
     <use x="323.914062" xlink:href="#DejaVuSans-101"/>
     <use x="385.4375" xlink:href="#DejaVuSans-32"/>
     <use x="417.224609" xlink:href="#DejaVuSans-99"/>
     <use x="472.205078" xlink:href="#DejaVuSans-104"/>
     <use x="535.583984" xlink:href="#DejaVuSans-97"/>
     <use x="596.863281" xlink:href="#DejaVuSans-114"/>
     <use x="636.226562" xlink:href="#DejaVuSans-103"/>
     <use x="699.703125" xlink:href="#DejaVuSans-101"/>
    </g>
   </g>
   <g id="text_3">
    <!-- Circles of constant potential -->
    <g transform="translate(58.752 174.528)scale(0.1 -0.1)">
     <defs>
      <path d="M 64.40625 67.28125 
L 64.40625 56.890625 
Q 59.421875 61.53125 53.78125 63.8125 
Q 48.140625 66.109375 41.796875 66.109375 
Q 29.296875 66.109375 22.65625 58.46875 
Q 16.015625 50.828125 16.015625 36.375 
Q 16.015625 21.96875 22.65625 14.328125 
Q 29.296875 6.6875 41.796875 6.6875 
Q 48.140625 6.6875 53.78125 8.984375 
Q 59.421875 11.28125 64.40625 15.921875 
L 64.40625 5.609375 
Q 59.234375 2.09375 53.4375 0.328125 
Q 47.65625 -1.421875 41.21875 -1.421875 
Q 24.65625 -1.421875 15.125 8.703125 
Q 5.609375 18.84375 5.609375 36.375 
Q 5.609375 53.953125 15.125 64.078125 
Q 24.65625 74.21875 41.21875 74.21875 
Q 47.75 74.21875 53.53125 72.484375 
Q 59.328125 70.75 64.40625 67.28125 
z
" id="DejaVuSans-67"/>
      <path d="M 9.421875 75.984375 
L 18.40625 75.984375 
L 18.40625 0 
L 9.421875 0 
z
" id="DejaVuSans-108"/>
      <path d="M 37.109375 75.984375 
L 37.109375 68.5 
L 28.515625 68.5 
Q 23.6875 68.5 21.796875 66.546875 
Q 19.921875 64.59375 19.921875 59.515625 
L 19.921875 54.6875 
L 34.71875 54.6875 
L 34.71875 47.703125 
L 19.921875 47.703125 
L 19.921875 0 
L 10.890625 0 
L 10.890625 47.703125 
L 2.296875 47.703125 
L 2.296875 54.6875 
L 10.890625 54.6875 
L 10.890625 58.5 
Q 10.890625 67.625 15.140625 71.796875 
Q 19.390625 75.984375 28.609375 75.984375 
z
" id="DejaVuSans-102"/>
      <path d="M 54.890625 33.015625 
L 54.890625 0 
L 45.90625 0 
L 45.90625 32.71875 
Q 45.90625 40.484375 42.875 44.328125 
Q 39.84375 48.1875 33.796875 48.1875 
Q 26.515625 48.1875 22.3125 43.546875 
Q 18.109375 38.921875 18.109375 30.90625 
L 18.109375 0 
L 9.078125 0 
L 9.078125 54.6875 
L 18.109375 54.6875 
L 18.109375 46.1875 
Q 21.34375 51.125 25.703125 53.5625 
Q 30.078125 56 35.796875 56 
Q 45.21875 56 50.046875 50.171875 
Q 54.890625 44.34375 54.890625 33.015625 
z
" id="DejaVuSans-110"/>
      <path d="M 18.109375 8.203125 
L 18.109375 -20.796875 
L 9.078125 -20.796875 
L 9.078125 54.6875 
L 18.109375 54.6875 
L 18.109375 46.390625 
Q 20.953125 51.265625 25.265625 53.625 
Q 29.59375 56 35.59375 56 
Q 45.5625 56 51.78125 48.09375 
Q 58.015625 40.1875 58.015625 27.296875 
Q 58.015625 14.40625 51.78125 6.484375 
Q 45.5625 -1.421875 35.59375 -1.421875 
Q 29.59375 -1.421875 25.265625 0.953125 
Q 20.953125 3.328125 18.109375 8.203125 
z
M 48.6875 27.296875 
Q 48.6875 37.203125 44.609375 42.84375 
Q 40.53125 48.484375 33.40625 48.484375 
Q 26.265625 48.484375 22.1875 42.84375 
Q 18.109375 37.203125 18.109375 27.296875 
Q 18.109375 17.390625 22.1875 11.75 
Q 26.265625 6.109375 33.40625 6.109375 
Q 40.53125 6.109375 44.609375 11.75 
Q 48.6875 17.390625 48.6875 27.296875 
z
" id="DejaVuSans-112"/>
     </defs>
     <use xlink:href="#DejaVuSans-67"/>
     <use x="69.824219" xlink:href="#DejaVuSans-105"/>
     <use x="97.607422" xlink:href="#DejaVuSans-114"/>
     <use x="136.470703" xlink:href="#DejaVuSans-99"/>
     <use x="191.451172" xlink:href="#DejaVuSans-108"/>
     <use x="219.234375" xlink:href="#DejaVuSans-101"/>
     <use x="280.757812" xlink:href="#DejaVuSans-115"/>
     <use x="332.857422" xlink:href="#DejaVuSans-32"/>
     <use x="364.644531" xlink:href="#DejaVuSans-111"/>
     <use x="425.826172" xlink:href="#DejaVuSans-102"/>
     <use x="461.03125" xlink:href="#DejaVuSans-32"/>
     <use x="492.818359" xlink:href="#DejaVuSans-99"/>
     <use x="547.798828" xlink:href="#DejaVuSans-111"/>
     <use x="608.980469" xlink:href="#DejaVuSans-110"/>
     <use x="672.359375" xlink:href="#DejaVuSans-115"/>
     <use x="724.458984" xlink:href="#DejaVuSans-116"/>
     <use x="763.667969" xlink:href="#DejaVuSans-97"/>
     <use x="824.947266" xlink:href="#DejaVuSans-110"/>
     <use x="888.326172" xlink:href="#DejaVuSans-116"/>
     <use x="927.535156" xlink:href="#DejaVuSans-32"/>
     <use x="959.322266" xlink:href="#DejaVuSans-112"/>
     <use x="1022.798828" xlink:href="#DejaVuSans-111"/>
     <use x="1083.980469" xlink:href="#DejaVuSans-116"/>
     <use x="1123.189453" xlink:href="#DejaVuSans-101"/>
     <use x="1184.712891" xlink:href="#DejaVuSans-110"/>
     <use x="1248.091797" xlink:href="#DejaVuSans-116"/>
     <use x="1287.300781" xlink:href="#DejaVuSans-105"/>
     <use x="1315.083984" xlink:href="#DejaVuSans-97"/>
     <use x="1376.363281" xlink:href="#DejaVuSans-108"/>
    </g>
   </g>
  </g>
 </g>
 <defs>
  <clipPath id="p89ed786c65">
   <rect height="266.112" width="266.112" x="103.104" y="41.472"/>
  </clipPath>
 </defs>
</svg>
